<?xml version="1.0" encoding="utf-8"?>
<!-- Generator: Adobe Illustrator 16.0.0, SVG Export Plug-In . SVG Version: 6.00 Build 0)  -->
<!DOCTYPE svg PUBLIC "-//W3C//DTD SVG 1.1//EN" "http://www.w3.org/Graphics/SVG/1.1/DTD/svg11.dtd">
<svg version="1.1" xmlns="http://www.w3.org/2000/svg" xmlns:xlink="http://www.w3.org/1999/xlink" x="0px" y="0px" width="474px"
	 height="576px" viewBox="0 0 474 576" enable-background="new 0 0 474 576" xml:space="preserve">
<g id="Background">
</g>
<g id="Object">
</g>
<g id="Designed_by_Freepik" display="none">
</g>
<g id="Layer_4">
	<ellipse fill="#BFC0C1" cx="290.775" cy="491.338" rx="116.722" ry="28.689"/>
	<polygon fill="#F4BB03" points="176.587,241.941 125.392,170.915 169.143,149.066 151.407,81.106 197.489,162.086 151.119,177.361 
			"/>
	<g>
		<path fill="#F4BB03" d="M19.51,306.279c1.619,0.055,3.212,0.187,4.803,0.323c1.584,0.154,3.169,0.308,4.736,0.51
			c1.574,0.182,3.136,0.401,4.694,0.628c1.564,0.209,3.106,0.482,4.658,0.729c1.555,0.238,3.086,0.542,4.627,0.819
			c1.543,0.27,3.071,0.581,4.599,0.897c1.526,0.317,3.062,0.609,4.574,0.967l4.552,1.029l4.521,1.116
			c1.509,0.369,3.014,0.746,4.505,1.162l4.485,1.217c1.497,0.4,2.973,0.863,4.459,1.292c2.973,0.859,5.933,1.756,8.875,2.702
			c2.943,0.945,5.875,1.919,8.796,2.927l-9.103,1.854c2.5-2.331,5.019-4.641,7.576-6.909c2.547-2.28,5.139-4.51,7.749-6.721
			c1.302-1.108,2.639-2.179,3.957-3.271c1.331-1.078,2.626-2.193,3.985-3.239l4.043-3.178c1.341-1.066,2.736-2.073,4.102-3.113
			l4.017-3.058l3.337,1.594c1.511,0.721,3.02,1.447,4.512,2.219c1.494,0.767,3,1.504,4.485,2.293l4.454,2.378l4.419,2.476
			c2.929,1.695,5.847,3.424,8.722,5.267c1.441,0.91,2.869,1.86,4.293,2.819c1.415,0.984,2.834,1.959,4.215,3.034
			c-1.75-0.066-3.462-0.235-5.179-0.393c-1.707-0.184-3.41-0.376-5.1-0.608c-3.387-0.442-6.731-0.999-10.064-1.588l-4.975-0.951
			l-4.938-1.051c-1.646-0.352-3.271-0.758-4.908-1.134c-1.639-0.37-3.261-0.786-4.881-1.207l7.354-1.465
			c-1.151,1.272-2.273,2.577-3.449,3.823l-3.508,3.76c-1.156,1.268-2.379,2.463-3.564,3.698c-1.199,1.221-2.379,2.462-3.594,3.666
			c-2.424,2.413-4.864,4.809-7.352,7.153c-2.477,2.356-4.991,4.671-7.525,6.965l-4.075,3.688l-5.027-1.834
			c-2.902-1.059-5.792-2.151-8.673-3.273c-2.88-1.121-5.742-2.291-8.593-3.498c-1.424-0.605-2.86-1.176-4.275-1.809l-4.248-1.885
			c-1.42-0.616-2.826-1.273-4.229-1.938l-4.213-1.984l-4.182-2.071c-1.399-0.677-2.775-1.417-4.16-2.134s-2.768-1.439-4.136-2.202
			c-1.37-0.757-2.75-1.486-4.107-2.282c-1.359-0.786-2.729-1.546-4.075-2.371c-1.353-0.807-2.703-1.62-4.039-2.473
			c-1.345-0.83-2.672-1.711-3.998-2.59C22.12,308.16,20.802,307.258,19.51,306.279z"/>
	</g>
	<g>
		<path fill="#F4BB03" d="M152.992,260.224c-2.186,0.273-4.354,0.442-6.517,0.578c-1.081,0.066-2.163,0.138-3.239,0.175
			c-1.076,0.04-2.157,0.107-3.23,0.125c-2.15,0.06-4.297,0.105-6.438,0.102c-2.145,0.031-4.275-0.023-6.412-0.047
			c-2.136-0.022-4.258-0.127-6.389-0.187c-2.128-0.071-4.244-0.212-6.367-0.314c-2.124-0.098-4.231-0.292-6.348-0.433
			c-1.057-0.084-2.117-0.139-3.17-0.245l-3.16-0.294l-6.393-0.594l-0.199-7.538c-0.053-2.002-0.135-4.005-0.134-6.004l-0.052-5.999
			c0.003-3.998,0.051-7.994,0.168-11.988c0.219-7.986,0.632-15.965,1.279-23.934l7.594,9.025c-2.679-0.427-5.345-0.953-8.018-1.43
			c-2.675-0.463-5.334-1.043-7.999-1.578c-2.667-0.518-5.318-1.162-7.977-1.748c-2.658-0.593-5.302-1.29-7.954-1.93
			c-2.641-0.722-5.291-1.375-7.924-2.158c-2.639-0.741-5.268-1.552-7.896-2.373c-2.624-0.848-5.245-1.728-7.857-2.667
			c-2.61-0.962-5.218-1.945-7.804-3.093c2.793-0.453,5.564-0.742,8.333-1.01c2.766-0.245,5.523-0.432,8.277-0.585
			c2.751-0.127,5.5-0.243,8.24-0.29c2.746-0.09,5.475-0.049,8.213-0.076c2.727,0.055,5.461,0.052,8.182,0.153
			c2.721,0.108,5.448,0.157,8.16,0.334c2.713,0.159,5.433,0.273,8.137,0.505c2.707,0.217,5.419,0.385,8.119,0.652l7.642,0.76
			l-0.048,8.266c-0.047,7.994-0.327,15.979-0.803,23.955c-0.229,3.987-0.529,7.973-0.873,11.956l-0.572,5.973
			c-0.172,1.991-0.429,3.979-0.654,5.969l-6.592-8.132l3.086,0.747c1.029,0.241,2.051,0.532,3.077,0.796
			c2.048,0.554,4.104,1.054,6.146,1.65c2.041,0.592,4.089,1.145,6.125,1.768c2.034,0.635,4.076,1.225,6.104,1.896
			c2.028,0.671,4.062,1.311,6.081,2.035c2.025,0.69,4.042,1.431,6.056,2.185c1.01,0.364,2.011,0.778,3.016,1.165
			c1.006,0.385,2.007,0.803,3.008,1.216C149.018,258.394,151.014,259.256,152.992,260.224z"/>
	</g>
	
		<path fill="#9CADB6" stroke="#211F1F" stroke-width="4.1645" stroke-linecap="round" stroke-linejoin="round" stroke-miterlimit="10" d="
		M395.742,122.734c11.932,5.033,25.782,7.732,27.676,22.043c2.934,22.15-0.71,74.727-19.277,107.869
		c-7.228,12.902-26.613,13.373-35.571,11.453c-42.347-9.081-135.652-40.461-139.337-42.167
		c-18.74-8.675-14.227-33.232-12.784-45.354c2.032-17.081,11.222-62.575,29.963-80.621c6.356-6.121,12.997-6.008,21.808-5.266
		C297.774,93.182,389.041,119.907,395.742,122.734z"/>
	
		<path fill="#9CADB6" stroke="#211F1F" stroke-width="4.1645" stroke-linecap="round" stroke-linejoin="round" stroke-miterlimit="10" d="
		M370.066,398.215c-1.331,12.879,0.133,26.914-13.001,32.905c-20.328,9.274-90.021,5.21-127.14-2.87
		c-14.45-3.146-17.488-19.5-18.269-28.627c-3.682-43.154-0.679-106.169-0.124-110.189c0,0,50.96,6.204,63.161,6.594
		c43.728,1.388,94.743-9.718,94.743-9.718C375.686,315.302,370.812,390.979,370.066,398.215z"/>
	
		<path fill="#42A58D" stroke="#211F1F" stroke-width="4.1645" stroke-linecap="round" stroke-linejoin="round" stroke-miterlimit="10" d="
		M295.863,142.286c0,13.034-7.789,23.601-20.821,23.601c-13.033,0-23.6-10.566-23.6-23.601c0-13.031,10.566-23.598,23.6-23.598
		C288.074,118.688,295.863,129.255,295.863,142.286z"/>
	
		<path fill="#42A58D" stroke="#211F1F" stroke-width="4.1645" stroke-linecap="round" stroke-linejoin="round" stroke-miterlimit="10" d="
		M391.648,173.348c0,7.379-5.982,10.584-13.361,10.584s-13.361-3.205-13.361-10.584c0-7.38,5.982-13.362,13.361-13.362
		S391.648,165.968,391.648,173.348z"/>
	
		<path fill="#42A58D" stroke="#211F1F" stroke-width="4.1645" stroke-linecap="round" stroke-linejoin="round" stroke-miterlimit="10" d="
		M245.102,197.367c-1.562,5.784-1.033,14.762,3.303,17.844c5.86,4.166,118.373,35.704,121.814,36.307
		c6.06,1.064,10.432-7.229,12.319-12.839c2.95-8.763,5.908-17.645-1.638-21.36c-3.508-1.729-120.338-34.957-125.579-33.941
		C247.974,184.801,246.28,193.001,245.102,197.367z"/>
	
		<polyline fill="none" stroke="#211F1F" stroke-width="4.1645" stroke-linecap="round" stroke-linejoin="round" stroke-miterlimit="10" points="
		246.932,197.467 276.631,206.095 294.42,211.263 306.959,214.904 332.539,222.334 342.179,225.135 352.158,228.033 
		381.932,236.682 	"/>
	
		<path fill="none" stroke="#211F1F" stroke-width="4.1645" stroke-linecap="round" stroke-linejoin="round" stroke-miterlimit="10" d="
		M333.346,104.46c0,0,32.447-58.446,71.332-20.611"/>
	
		<path fill="#42A58D" stroke="#211F1F" stroke-width="4.1645" stroke-linecap="round" stroke-linejoin="round" stroke-miterlimit="10" d="
		M428.332,99.199c0-8.241-4.758-16.311-14.054-16.311s-16.831,6.681-16.831,14.922c0,8.243,7.535,14.924,16.831,14.924
		S428.332,107.441,428.332,99.199z"/>
	
		<path fill="#F4082A" stroke="#211F1F" stroke-width="4.1645" stroke-linecap="round" stroke-linejoin="round" stroke-miterlimit="10" d="
		M351.738,317.196c0,4.217-3.418,7.636-7.635,7.636s-7.635-3.419-7.635-7.636s3.418-6.247,7.635-6.247
		S351.738,312.979,351.738,317.196z"/>
	
		<path fill="#42A58D" stroke="#211F1F" stroke-width="4.1645" stroke-linecap="round" stroke-linejoin="round" stroke-miterlimit="10" d="
		M348.73,339.175c0,3.324-1.306,6.015-4.627,6.015s-6.016-2.69-6.016-6.015c0-3.323,2.694-6.014,6.016-6.014
		S348.73,335.852,348.73,339.175z"/>
	
		<path fill="#42A58D" stroke="#211F1F" stroke-width="4.1645" stroke-linecap="round" stroke-linejoin="round" stroke-miterlimit="10" d="
		M348.499,360.229c0,2.298-1.863,2.776-4.163,2.776c-2.302,0-4.165-0.479-4.165-2.776c0-2.3,1.863-4.165,4.165-4.165
		C346.636,356.064,348.499,357.93,348.499,360.229z"/>
	
		<path fill="#9CADB6" stroke="#211F1F" stroke-width="4.1645" stroke-linecap="round" stroke-linejoin="round" stroke-miterlimit="10" d="
		M369.438,286.31c0,0,58.91,15.242,58.448,88.816c0,0-5.554-1.071-14,1.099c-8.819,2.264-12.809,6.042-12.809,6.042
		s-1.446-36.15-28.747-56.048C372.33,326.219,372.561,299.611,369.438,286.31z"/>
	
		<path fill="none" stroke="#211F1F" stroke-width="4.1645" stroke-linecap="round" stroke-linejoin="round" stroke-miterlimit="10" d="
		M398.706,303.547c0,0-3.009,10.41-17.816,20.127"/>
	
		<path fill="none" stroke="#211F1F" stroke-width="4.1645" stroke-linecap="round" stroke-linejoin="round" stroke-miterlimit="10" d="
		M416.752,324.37c0,0-5.786,9.716-21.056,13.88"/>
	
		<path fill="none" stroke="#211F1F" stroke-width="4.1645" stroke-linecap="round" stroke-linejoin="round" stroke-miterlimit="10" d="
		M425.362,351.217c0,0-7.669,8.313-23.471,9.231"/>
	
		<path fill="#5D767F" stroke="#211F1F" stroke-width="4.1645" stroke-linecap="round" stroke-linejoin="round" stroke-miterlimit="10" d="
		M412.996,417.799c-2.984-1.875-5.239-4.803-6.081-8.414c-1.752-7.521,3.247-15.112,11.169-16.959
		c7.92-1.844,15.76,2.754,17.515,10.275c0.688,2.953,0.322,5.914-0.842,8.536l11.038,4.337c5.444-6.169,7.981-13.945,6.21-21.549
		c-3.263-14-19.879-22.094-37.115-18.076c-17.235,4.016-28.562,18.622-25.3,32.623c2.08,8.924,9.598,15.432,19.234,17.946
		L412.996,417.799z"/>
	
		<path fill="#9CADB6" stroke="#211F1F" stroke-width="4.1645" stroke-linecap="round" stroke-linejoin="round" stroke-miterlimit="10" d="
		M187.481,464.236c0,0-42.28-43.761-106.082-7.123c0,0,3.668,4.306,5.938,12.725c2.373,8.792,1.049,14.122,1.049,14.122
		s32.174-16.543,62.937-2.584C151.323,481.376,174.366,468.069,187.481,464.236z"/>
	
		<path fill="none" stroke="#211F1F" stroke-width="4.1645" stroke-linecap="round" stroke-linejoin="round" stroke-miterlimit="10" d="
		M158.063,447.254c0,0-7.577,7.746-8.741,25.418"/>
	
		<path fill="none" stroke="#211F1F" stroke-width="4.1645" stroke-linecap="round" stroke-linejoin="round" stroke-miterlimit="10" d="
		M131.054,441.804c0,0-5.606,9.821-1.712,25.162"/>
	
		<path fill="none" stroke="#211F1F" stroke-width="4.1645" stroke-linecap="round" stroke-linejoin="round" stroke-miterlimit="10" d="
		M103.447,447.533c0,0-3.457,10.77,3.527,24.974"/>
	
		<path fill="#5D767F" stroke="#211F1F" stroke-width="4.1645" stroke-linecap="round" stroke-linejoin="round" stroke-miterlimit="10" d="
		M51.595,491.088c3.101,1.674,6.757,2.195,10.317,1.148c7.405-2.181,11.551-10.269,9.258-18.07
		c-2.295-7.802-10.161-12.363-17.571-10.184c-2.907,0.855-5.304,2.633-7.013,4.936l-9.21-7.47
		c2.686-7.775,8.205-13.815,15.695-16.017c13.79-4.057,29.017,6.419,34.01,23.396c4.991,16.979-2.138,34.032-15.93,38.087
		c-8.792,2.586-18.157-0.752-25.094-7.899L51.595,491.088z"/>
	
		<polygon fill="#9CADB6" stroke="#211F1F" stroke-width="4.1645" stroke-linecap="round" stroke-linejoin="round" stroke-miterlimit="10" points="
		233.744,429.638 229.58,471.283 276.777,470.936 274.348,434.496 	"/>
	
		<path fill="#9CADB6" stroke="#211F1F" stroke-width="4.1645" stroke-linecap="round" stroke-linejoin="round" stroke-miterlimit="10" d="
		M306.622,436.58l-1.735,35.744l47.893-1.041l-4.512-37.135C348.268,434.148,318.336,437.533,306.622,436.58z"/>
	
		<path fill="#5D767F" stroke="#211F1F" stroke-width="4.1645" stroke-linecap="round" stroke-linejoin="round" stroke-miterlimit="10" d="
		M224.029,499.969c0,0-6.711-0.693-4.63-10.412c2.083-9.717-0.924-19.432,21.981-18.275l25.912-0.232
		c0,0,19.665-3.008,17.583,22.211c0,0,0.231,6.94-11.104,7.404C273.771,500.664,241.612,502.977,224.029,499.969z"/>
	
		<path fill="#5D767F" stroke="#211F1F" stroke-width="4.1645" stroke-linecap="round" stroke-linejoin="round" stroke-miterlimit="10" d="
		M301.071,500.431c0,0-6.71-0.693-4.628-10.411c2.083-9.717-0.925-19.432,21.98-18.277l25.912-0.23c0,0,19.664-3.009,17.584,22.211
		c0,0,0.232,6.939-11.106,7.402C350.813,501.125,318.655,503.438,301.071,500.431z"/>
	
		<ellipse fill="#5D767F" stroke="#211F1F" stroke-width="4.1645" stroke-linecap="round" stroke-linejoin="round" stroke-miterlimit="10" cx="252.021" cy="451.615" rx="6.247" ry="2.546"/>
	
		<ellipse fill="#5D767F" stroke="#211F1F" stroke-width="4.1645" stroke-linecap="round" stroke-linejoin="round" stroke-miterlimit="10" cx="328.37" cy="451.615" rx="6.247" ry="2.546"/>
	
		<path fill="none" stroke="#211F1F" stroke-width="4.1645" stroke-linecap="round" stroke-linejoin="round" stroke-miterlimit="10" d="
		M273.768,295.217c-7.248-0.22-20.127-8.08-17.586-15.73c2.655-7.99,20.244-8.199,27.475-6.877c4.52,0.828,14.15,5.227,8.496,10.655
		c-3.748,3.6-13.008,2.31-17.25,0.595c-5.863-2.369-16.355-11.523-12.264-18.758c4.56-8.062,21.996-4.117,28.205-0.653
		c3.446,1.923,11.629,11.136,3.373,11.956c-4.817,0.48-12.025-7.038-14.569-10.559c-3.974-5.506-6.332-16.366,1.341-19.939
		c6.574-3.061,16.467,1.904,20.578,6.816c6.226,7.44,0.164,11.377-7.764,8.294c-4.188-1.624-17.16-13.112-12.172-18.087"/>
	
		<path fill="none" stroke="#211F1F" stroke-width="4.1645" stroke-linecap="round" stroke-linejoin="round" stroke-miterlimit="10" d="
		M209.451,294.639c0.008-5.592-5.718-7.563-10.349-5.716c-5.024,2.003-6.798,6.278-7.886,11.244
		c-1.097,4.995-1.785,10.49,0.393,15.306c0.904,2.002,2.33,4.447,4.658,4.988c7.167,1.653,8.092-7.126,6.189-11.723
		c-2.33-5.621-8.713-9.025-14.791-7.861c-7.439,1.425-8.891,13.066-5.909,18.732c1.049,1.988,5.868,9.016,8.894,6.279
		c2.461-2.229-0.958-7.306-2.369-9.041c-4.912-6.033-13.72-8.85-15.617,1.042"/>
</g>
</svg>
