<svg id="Capa_1" data-name="Capa 1" xmlns="http://www.w3.org/2000/svg" viewBox="0 0 120.5 23"><defs><style>.cls-1{fill:#454995;}.cls-2{fill:#226ca3;}</style></defs><title>Mesa de trabajo 2</title><path class="cls-1" d="M20,9.15s0,0,0,0c.32-.57,3.16-5.61,2.2-5.93a8.81,8.81,0,0,1-2.36-1.69.09.09,0,0,0-.14.11l.79,1.58c.34.68,0,1,0,1L17.05,8.65h0c-2.72-2.7-5.09.67-5.11.69h0c-.33,0-.67.67-.68.69h0A4.59,4.59,0,0,1,7.76,8.93a1.54,1.54,0,0,0-.62-.29c-.34-.08-.36-.29-.36-.32,1.36-3.75.34-2.73.34-2.73A28.23,28.23,0,0,1,1,11.38s0,0,0,0c1.59.24,3.17-1.15,3.79-1.77a.4.4,0,0,1,.56,0l1.41,1.42s0,0,0,0c-.69,1.19.6,1.79,1.62,1.38a.66.66,0,0,1,.83.35,1.8,1.8,0,0,0,.63.66,4.23,4.23,0,0,0,2.69.35s0,0,0,0L4.79,21.93a.14.14,0,0,1-.16,0L4,21.68l-1.25-.53c-.13-.06-.25,0-.18,0l.23.2a5.07,5.07,0,0,0,.46.35,7,7,0,0,0,.75.44,2.87,2.87,0,0,0,.4.18,5.22,5.22,0,0,0,2.4,0l10.43-9.06a101.21,101.21,0,0,0,11.15-.46c.7-.07,1.41-.16,2.11-.3.2,0,.89,0,1-.21s-.77-.78-1-.92A11.22,11.22,0,0,0,28,10.08a16.57,16.57,0,0,0-5-1c-.73,0-1.46,0-2.19,0A6.31,6.31,0,0,0,20,9.15Zm-7.06,4a.68.68,0,0,1,0-1.36.68.68,0,1,1,0,1.36ZM16.68,9a.67.67,0,0,1-.72.68.65.65,0,0,1-.46-1.06A.66.66,0,0,1,16.68,9Zm9.21,2.18c-.43.74-1.85.77-2.52.51-.22-.08-.56-.26-.58-.53s.2-.36.41-.43l.14,0a3.53,3.53,0,0,0,.65-.21c.21-.1.34-.27.54-.39.44-.26.89.07,1.17.4C25.86,10.68,26,11,25.89,11.19Zm0-1.16c-.36-.12-.62-.29-.59-.38s.34-.07.7,0,.63.3.59.39S26.23,10.15,25.87,10Z"/><path class="cls-2" d="M29.26,3.38a13,13,0,0,1,3.13-2.17A6.17,6.17,0,0,1,34.73.5a.54.54,0,0,1,.41.19,1.25,1.25,0,0,1,.3.42,1,1,0,0,1,.12.36.29.29,0,0,1-.15.28,2.56,2.56,0,0,1-.52.22l.19.44c.08.17.14.32.18.43a.79.79,0,0,1,.06.29,2.21,2.21,0,0,1-.51.94c-.34.47-.58.81-.72,1a1.44,1.44,0,0,0-.21.8q0,.78.72.78A4.55,4.55,0,0,0,36.92,5.3v.64q-2.67,3-3.83,3a.65.65,0,0,1-.59-.27,1.47,1.47,0,0,1-.17-.8,7.6,7.6,0,0,1,.6-2.43c-1,1.15-1.8,2-2.3,2.45a2.06,2.06,0,0,1-1.24.72c-.15,0-.35-.13-.58-.4a4.09,4.09,0,0,1-.62-1,3.4,3.4,0,0,1-.27-1.33A2.88,2.88,0,0,1,28,5a1.84,1.84,0,0,1,.37-.68A9.2,9.2,0,0,1,29.26,3.38Zm5.08-1.16a23.39,23.39,0,0,0-3.93,2.13,2.39,2.39,0,0,0-1.17,1.82,1.12,1.12,0,0,0,.12.55.35.35,0,0,0,.32.22,1.14,1.14,0,0,0,.41-.15,8.36,8.36,0,0,0,2-1.71C32.74,4.38,33.48,3.42,34.34,2.22Z"/><path class="cls-2" d="M37.63,7.07v.14a.73.73,0,0,0,.16.51.54.54,0,0,0,.42.18,1.3,1.3,0,0,0,.56-.13,2.85,2.85,0,0,0,.58-.33c.19-.14.42-.33.7-.57v.34a7.31,7.31,0,0,1-1.17,1.15,1.87,1.87,0,0,1-1.11.4A.93.93,0,0,1,37,8.38a1.69,1.69,0,0,1-.29-1A2.12,2.12,0,0,1,37,6.28a4.08,4.08,0,0,1,.89-1,3.61,3.61,0,0,1,.83-.55,1.89,1.89,0,0,1,.74-.18.65.65,0,0,1,.41.12A.43.43,0,0,1,40,5a1.1,1.1,0,0,1-.26.69,2.93,2.93,0,0,1-.79.69A8.4,8.4,0,0,1,37.63,7.07Zm0-.36a3.21,3.21,0,0,0,.86-.48,2.37,2.37,0,0,0,.52-.55.87.87,0,0,0,.17-.38c0-.09,0-.13-.12-.13a.72.72,0,0,0-.32.13,2.49,2.49,0,0,0-.46.33,2.41,2.41,0,0,0-.41.48A1.58,1.58,0,0,0,37.68,6.71Z"/><path class="cls-2" d="M40,7.3V6.94c.2-.24.35-.44.46-.6a.58.58,0,0,1-.26-.15.41.41,0,0,1-.08-.27,1.13,1.13,0,0,1,.17-.5,2.73,2.73,0,0,1,.41-.57,1.14,1.14,0,0,1,.44-.34.28.28,0,0,1,.15,0c.07,0,.11,0,.11.1a1,1,0,0,1-.17.38,14.29,14.29,0,0,1,1.43-.17.32.32,0,0,1,.16,0A.39.39,0,0,1,43,5,1.15,1.15,0,0,1,43,5.4a.5.5,0,0,1-.1.25,4.73,4.73,0,0,1-.36.39,3.75,3.75,0,0,0-.49.69,1.35,1.35,0,0,0-.2.56c0,.17.11.26.32.26a2.54,2.54,0,0,0,1.18-.69v.37c-.31.32-.56.57-.76.76a4.59,4.59,0,0,1-.55.44.85.85,0,0,1-.46.16.46.46,0,0,1-.38-.21,1,1,0,0,1-.16-.62,1.47,1.47,0,0,1,.12-.54,3.68,3.68,0,0,1,.36-.66,8.17,8.17,0,0,1,.53-.71l-.35.07L41.32,6,41,6.05A3.92,3.92,0,0,1,40,7.3Z"/><path class="cls-2" d="M46.91,6.86v.37a2.91,2.91,0,0,1-.59.44,1.17,1.17,0,0,1-.63.09c-.48.57-.91.85-1.27.85a.89.89,0,0,1-.56-.2,1.41,1.41,0,0,1-.41-.56,2,2,0,0,1-.15-.79,1.75,1.75,0,0,1,.23-.79,3.77,3.77,0,0,1,.61-.8,3.42,3.42,0,0,1,.8-.6,1.71,1.71,0,0,1,.79-.23.93.93,0,0,1,.41.08.24.24,0,0,1,.15.22.4.4,0,0,1-.13.26.52.52,0,0,1,.29.14.69.69,0,0,1,.08.38,2.58,2.58,0,0,1-.13.67,3.38,3.38,0,0,1-.34.75l.1.1h.08a.41.41,0,0,0,.19,0l.16-.1ZM45.77,5.41c-.31.18-.57.35-.79.5a4.43,4.43,0,0,0-.55.45,1.21,1.21,0,0,0-.3.46c-.09.41-.14.64-.14.67,0,.24.17.37.51.37a1.75,1.75,0,0,0,.79-.41A1.56,1.56,0,0,1,45.2,7a2,2,0,0,1,.14-.71A6.07,6.07,0,0,1,45.77,5.41Z"/><path class="cls-2" d="M57,6.85v.36a18.06,18.06,0,0,1-1.71,1.7,6.94,6.94,0,0,1-1.51,1,3.29,3.29,0,0,1-1.44.36,2.08,2.08,0,0,1-1-.24,1.55,1.55,0,0,1-.65-.69,2.6,2.6,0,0,1-.21-1.08,3.9,3.9,0,0,1,.15-1A5.8,5.8,0,0,1,51,6.15,9.56,9.56,0,0,1,51.76,5q.43-.6,1-1.26A11.86,11.86,0,0,1,54,2.56a8.09,8.09,0,0,1,1.07-.78,4.66,4.66,0,0,1,.89-.42,2.39,2.39,0,0,1,.69-.14.82.82,0,0,1,.47.14.88.88,0,0,1,.29.38,1.55,1.55,0,0,1,.11.59,2.84,2.84,0,0,1-.43,1.39A7.94,7.94,0,0,1,56,5.2,9.83,9.83,0,0,1,54.8,6.36a1.77,1.77,0,0,1-.83.45.45.45,0,0,1-.32-.13.42.42,0,0,1-.15-.31,1.38,1.38,0,0,1,.34-.76,5.22,5.22,0,0,1,.73-.82c.26-.25.42-.38.47-.38s0,0,0,0a.49.49,0,0,1-.06.17.53.53,0,0,0-.06.15s0,0,0,0,.24-.17.54-.5a8.38,8.38,0,0,0,.82-1.11,2,2,0,0,0,.37-1A.37.37,0,0,0,56.66,2a.26.26,0,0,0-.21-.08,2.42,2.42,0,0,0-1.17.62,12.08,12.08,0,0,0-1.61,1.6,11.94,11.94,0,0,0-1.38,2,4,4,0,0,0-.55,1.82,1.88,1.88,0,0,0,.13.76,1,1,0,0,0,.4.47,1.14,1.14,0,0,0,.63.16,3.53,3.53,0,0,0,1.82-.62A13.11,13.11,0,0,0,57,6.85Z"/><path class="cls-2" d="M60.46,6.86v.37a2.66,2.66,0,0,1-.59.44,1.14,1.14,0,0,1-.63.09c-.48.57-.9.85-1.27.85a.91.91,0,0,1-.56-.2A1.51,1.51,0,0,1,57,7.85a2,2,0,0,1-.15-.79,1.65,1.65,0,0,1,.24-.79,3.72,3.72,0,0,1,.6-.8,3.42,3.42,0,0,1,.8-.6,1.75,1.75,0,0,1,.79-.23.9.9,0,0,1,.41.08.24.24,0,0,1,.15.22.4.4,0,0,1-.13.26.52.52,0,0,1,.29.14.69.69,0,0,1,.08.38,2.22,2.22,0,0,1-.13.67,3.35,3.35,0,0,1-.33.75l.09.1h.09a.39.39,0,0,0,.18,0l.17-.1ZM59.32,5.41c-.3.18-.57.35-.78.5a3.79,3.79,0,0,0-.55.45,1.13,1.13,0,0,0-.31.46c-.09.41-.14.64-.14.67,0,.24.17.37.51.37a1.82,1.82,0,0,0,.8-.41,1.35,1.35,0,0,1-.1-.5,1.85,1.85,0,0,1,.15-.71A5,5,0,0,1,59.32,5.41Z"/><path class="cls-2" d="M64.17,5.87c-.64.72-1,1.23-1,1.51s.07.24.19.24a.85.85,0,0,0,.42-.17q.25-.17.81-.6v.38c-.53.52-.93.89-1.21,1.12a1.21,1.21,0,0,1-.68.34c-.31,0-.46-.2-.46-.6a1.07,1.07,0,0,1,.06-.35,2,2,0,0,1,.15-.35c.06-.12.16-.3.3-.53l.45-.78a3.22,3.22,0,0,0-.79.63,6.42,6.42,0,0,0-.52.57l-.46.59-.36.45a.35.35,0,0,1-.23.11c-.12,0-.23-.12-.33-.37a2.28,2.28,0,0,1-.15-.86,1.52,1.52,0,0,1,.07-.48,3.65,3.65,0,0,1,.28-.48,5.37,5.37,0,0,1,.65-.86.79.79,0,0,1,.53-.28.6.6,0,0,1,.29.06.21.21,0,0,1,.11.19.19.19,0,0,1,0,.12.41.41,0,0,1-.07.11L62,5.77c-.59.65-.88,1.07-.88,1.26s0,.16.11.16.13-.07.25-.22l.5-.55a9.46,9.46,0,0,1,.71-.73A7.25,7.25,0,0,1,63.67,5a.85.85,0,0,1,.48-.2q.09,0,.18.24a1.67,1.67,0,0,1,.08.49A.69.69,0,0,1,64.17,5.87Z"/><path class="cls-2" d="M64.56,7V6.89c1-1,1.6-1.7,2-2.1.08-.45.28-.68.59-.68a.53.53,0,0,1,.25.07l0,.1a.5.5,0,0,0,0,.19,1.44,1.44,0,0,0,.08.39q.08.28.12.48a1.81,1.81,0,0,1,.05.43,1.54,1.54,0,0,1-.17.7,2.33,2.33,0,0,1-.48.64,4.76,4.76,0,0,1-.81.63l.31,0A1.32,1.32,0,0,0,67,7.66a4.23,4.23,0,0,0,.54-.3c.18-.13.39-.3.64-.5v.37a9,9,0,0,1-1.27,1,1.83,1.83,0,0,1-1,.35,1.3,1.3,0,0,1-1-.44,1.14,1.14,0,0,1-.33-.51A2.81,2.81,0,0,1,64.56,7Zm2.06-.85-.1-.81c-.23.26-.71.76-1.46,1.49a1,1,0,0,1,.45.19,3.24,3.24,0,0,1,.34.47,1.29,1.29,0,0,0,.58-.42,1.15,1.15,0,0,0,.2-.73v-.1S66.62,6.21,66.62,6.18Z"/><path class="cls-2" d="M70.72,6.5c-.54.7-.94,1.21-1.22,1.5s-.51.45-.69.45a.55.55,0,0,1-.38-.17,1.2,1.2,0,0,1-.28-.47,2.18,2.18,0,0,1-.09-.63,1.64,1.64,0,0,1,0-.4,1.53,1.53,0,0,1,.16-.39,3.24,3.24,0,0,1,.3-.46c.13-.17.29-.36.47-.57L69.31,5a.58.58,0,0,1,.22-.18,1,1,0,0,1,.35-.05,1.27,1.27,0,0,1,.34.05c.11,0,.16.06.16.09a1,1,0,0,1-.16.36,4.1,4.1,0,0,1-.53.64,7.86,7.86,0,0,1-.84.73,1.73,1.73,0,0,0-.1.5c0,.15.06.23.18.23a.4.4,0,0,0,.22-.11,6.46,6.46,0,0,0,.52-.44l.66-.57a3.27,3.27,0,0,0,.5-.56c.19-.25.35-.43.47-.56.27-.29.45-.47.55-.56a.44.44,0,0,1,.29-.13.19.19,0,0,1,.18.08.83.83,0,0,1,.05.34.92.92,0,0,1,0,.19,1.19,1.19,0,0,1-.1.18,4.09,4.09,0,0,1-.27.42l-.5.72a2,2,0,0,0-.27.48,1.11,1.11,0,0,0-.12.4c0,.19.08.28.23.28a.86.86,0,0,0,.43-.15,9.21,9.21,0,0,0,.77-.56v.37q-.64.6-1,.87a4.29,4.29,0,0,1-.53.41.9.9,0,0,1-.44.14c-.31,0-.46-.19-.46-.56a1.67,1.67,0,0,1,.14-.56C70.36,7.29,70.51,7,70.72,6.5Z"/><path class="cls-2" d="M75,7.63c.51-.45,1-.84,1.31-1.18l.86-.78c.21-.19.39-.36.55-.49A.92.92,0,0,1,78,5c.09,0,.17.09.25.26a1.12,1.12,0,0,1,.11.43c0,.07-.11.24-.35.5a7.73,7.73,0,0,0-.52.62.78.78,0,0,0-.18.49.37.37,0,0,0,.1.24.36.36,0,0,0,.24.09.71.71,0,0,0,.39-.17c.14-.11.38-.31.7-.59v.39q-.48.45-.87.78a4.46,4.46,0,0,1-.69.5,1.12,1.12,0,0,1-.48.16.37.37,0,0,1-.29-.13.52.52,0,0,1-.11-.32,1.32,1.32,0,0,1,.06-.39c0-.12.12-.28.21-.45s.21-.39.36-.64.29-.48.42-.68a13.29,13.29,0,0,0-1,.88c-.29.28-.53.53-.72.74l-.43.5a.84.84,0,0,1-.58.34c-.19,0-.28-.13-.28-.4a1.75,1.75,0,0,1,.21-.6c.15-.28.35-.65.61-1.09a.18.18,0,0,0,0-.14.1.1,0,0,0-.11-.11c-.08,0-.2.08-.35.23s-.45.47-.89,1a5.89,5.89,0,0,0-.41.53,3.68,3.68,0,0,1-.33.44.26.26,0,0,1-.2.11c-.13,0-.26-.11-.37-.35a1.94,1.94,0,0,1-.17-.82,1.57,1.57,0,0,1,.11-.6,5.5,5.5,0,0,1,.35-.61,5.23,5.23,0,0,1,.61-.77.7.7,0,0,1,.49-.23.54.54,0,0,1,.27.06.2.2,0,0,1,.11.18.75.75,0,0,1-.2.38,3.61,3.61,0,0,1-.51.55,2.13,2.13,0,0,0-.31.39.79.79,0,0,0-.15.34c0,.1,0,.15.11.15s.22-.13.48-.39l.84-.84a10.69,10.69,0,0,1,.84-.76,1.17,1.17,0,0,1,.66-.3.35.35,0,0,1,.27.13.4.4,0,0,1,.11.3,1.12,1.12,0,0,1-.16.44,7.6,7.6,0,0,1-.49.79C75.6,6.81,75.33,7.19,75,7.63Z"/><path class="cls-2" d="M81.35,6.87v.41a5.92,5.92,0,0,1-1,1,1.43,1.43,0,0,1-.79.35.71.71,0,0,1-.67-.48,2.36,2.36,0,0,1-.22-1,1.84,1.84,0,0,1,0-.41,1.48,1.48,0,0,1,.11-.32A3.74,3.74,0,0,1,79,6c.53-.81,1-1.22,1.44-1.22.22,0,.34.09.34.26a1.38,1.38,0,0,1-.22.55,2.92,2.92,0,0,1-.39.54c-.32.31-.53.52-.63.64a.66.66,0,0,0-.15.42.43.43,0,0,0,.15.33.56.56,0,0,0,.39.13,1.1,1.1,0,0,0,.57-.19A6,6,0,0,0,81.35,6.87ZM81,4.4a.41.41,0,0,1-.27-.1A.34.34,0,0,1,80.59,4a1,1,0,0,1,.23-.54.65.65,0,0,1,.48-.3.43.43,0,0,1,.28.1.41.41,0,0,1,.11.3.87.87,0,0,1-.23.52A.6.6,0,0,1,81,4.4Z"/><path class="cls-2" d="M85,6.88v.36a1.85,1.85,0,0,1-.91.37,1.31,1.31,0,0,1-.38-.06,6.16,6.16,0,0,1-.86.92,1.12,1.12,0,0,1-.71.29.68.68,0,0,1-.64-.44,2.34,2.34,0,0,1-.22-1.08,4.16,4.16,0,0,1,.53-1.91,10.34,10.34,0,0,1,1.28-1.94,11.63,11.63,0,0,1,1.45-1.5,2.16,2.16,0,0,1,1-.59c.15,0,.23.11.23.33,0,1-1.23,2.65-3.71,5.05a3.57,3.57,0,0,0,0,.39c0,.51.14.76.41.76a.49.49,0,0,0,.32-.13,4.21,4.21,0,0,0,.5-.49,1.23,1.23,0,0,1-.13-.44,1.11,1.11,0,0,1,.25-.66,2.73,2.73,0,0,1,.56-.61,1,1,0,0,1,.47-.26c.15,0,.22.11.22.33a1.66,1.66,0,0,1-.13.59,4.69,4.69,0,0,1-.38.8l.15.11a.29.29,0,0,0,.17,0A1.11,1.11,0,0,0,85,6.88Zm-2.81-.83a5.29,5.29,0,0,0,.58-.58c.19-.23.48-.58.85-1s.64-.82.84-1.12a6.14,6.14,0,0,0,.46-.75A1,1,0,0,0,85,2.14c0-.05,0-.08-.05-.08s-.25.13-.5.4a9.32,9.32,0,0,0-.88,1.1c-.45.64-.78,1.12-1,1.44A5,5,0,0,0,82.15,6.05Z"/><path class="cls-2" d="M87.6,6.81v.41c-.77,1-1.39,1.53-1.88,1.53a.67.67,0,0,1-.61-.43,2.39,2.39,0,0,1-.23-1.12,4.18,4.18,0,0,1,.27-1.34,9.07,9.07,0,0,1,.71-1.58,9.57,9.57,0,0,1,.92-1.39,3.31,3.31,0,0,1,.89-.83.5.5,0,0,1,.26-.1.14.14,0,0,1,.15.1,1,1,0,0,1,0,.35A4.18,4.18,0,0,1,87.5,4.3a11.33,11.33,0,0,1-1.74,2.28A2.42,2.42,0,0,0,85.7,7a1,1,0,0,0,.15.57.48.48,0,0,0,.43.22.46.46,0,0,0,.29-.11,3.44,3.44,0,0,0,.34-.26ZM86,5.82a5,5,0,0,0,.55-.64A8.56,8.56,0,0,0,87,4.41a6.35,6.35,0,0,0,.37-.74,1.43,1.43,0,0,0,.14-.49c0-.08,0-.13-.09-.13l-.13.06a3.89,3.89,0,0,0-.75,1.08A6.57,6.57,0,0,0,86,5.82Z"/><path class="cls-2" d="M88.44,7.07v.14a.73.73,0,0,0,.16.51A.52.52,0,0,0,89,7.9a1.34,1.34,0,0,0,.56-.13,2.79,2.79,0,0,0,.57-.33c.2-.14.43-.33.71-.57v.34a6.94,6.94,0,0,1-1.18,1.15,1.82,1.82,0,0,1-1.11.4,1,1,0,0,1-.78-.38,1.69,1.69,0,0,1-.28-1,2.12,2.12,0,0,1,.27-1.06,4,4,0,0,1,.88-1,3.66,3.66,0,0,1,.84-.55,1.85,1.85,0,0,1,.74-.18.65.65,0,0,1,.41.12A.43.43,0,0,1,90.8,5a1.17,1.17,0,0,1-.26.69,3.09,3.09,0,0,1-.79.69A8.87,8.87,0,0,1,88.44,7.07Zm0-.36a3.14,3.14,0,0,0,.85-.48,2.18,2.18,0,0,0,.52-.55A.76.76,0,0,0,90,5.3c0-.09,0-.13-.11-.13a.74.74,0,0,0-.33.13,2.15,2.15,0,0,0-.45.33,2.41,2.41,0,0,0-.41.48A1.58,1.58,0,0,0,88.49,6.71Z"/><path class="cls-2" d="M90.83,7V6.89c1-1,1.61-1.7,2-2.1.08-.45.27-.68.58-.68a.5.5,0,0,1,.25.07l0,.1a.84.84,0,0,0,0,.19,2,2,0,0,0,.08.39c0,.19.1.35.13.48a2.63,2.63,0,0,1,0,.43,1.54,1.54,0,0,1-.17.7,2.33,2.33,0,0,1-.48.64,4.76,4.76,0,0,1-.81.63l.32,0a1.28,1.28,0,0,0,.48-.11,3.64,3.64,0,0,0,.54-.3c.18-.13.4-.3.64-.5v.37a8,8,0,0,1-1.27,1,1.83,1.83,0,0,1-1,.35,1.33,1.33,0,0,1-1-.44,1.11,1.11,0,0,1-.32-.51A2.3,2.3,0,0,1,90.83,7Zm2.06-.85-.09-.81c-.23.26-.72.76-1.47,1.49a1,1,0,0,1,.45.19,3.12,3.12,0,0,1,.35.47,1.25,1.25,0,0,0,.57-.42,1.15,1.15,0,0,0,.21-.73s0-.07,0-.1A.28.28,0,0,0,92.89,6.18Z"/><path class="cls-2" d="M96.75,4.77l.1-.65A1.32,1.32,0,0,1,97,3.58a1.68,1.68,0,0,1,.44-.46q.32-.25,1-.72A5,5,0,0,1,101,1.28a.59.59,0,0,1,.39.11.55.55,0,0,1,.11.39,1.44,1.44,0,0,1-.15.53c-.09.22-.27.58-.53,1.06l-.69,1.31c-.16.32-.35.66-.55,1l-.42.73a.78.78,0,0,0-.1.3.25.25,0,0,0,.07.19.22.22,0,0,0,.18.08.54.54,0,0,0,.32-.15c.12-.1.35-.33.7-.67.17-.17.35-.37.55-.6l.72-.9c.29-.36.55-.7.79-1l.41-.53a4.39,4.39,0,0,1,.32-.36.34.34,0,0,1,.2-.12s.12.06.22.17l.13.17a.66.66,0,0,1,.15.3,3.86,3.86,0,0,1-.41.81c-.28.47-.51.87-.7,1.21s-.44.83-.74,1.48a21,21,0,0,0-.88,2.14c.75-.57,1.26-.94,1.54-1.13a1.29,1.29,0,0,1,.6-.29c.08,0,.13,0,.13.11a.53.53,0,0,1-.13.3,4.28,4.28,0,0,1-.32.41l-.62.64c-.27.29-.57.59-.9.92a6.32,6.32,0,0,0-.58.71l-.43.62a.6.6,0,0,1-.28.25.35.35,0,0,1-.35-.08.56.56,0,0,1-.15-.43,3.78,3.78,0,0,1,.21-.87c.14-.44.36-1,.64-1.64.17-.39.35-.76.52-1.11s.38-.73.61-1.15L102.22,5l.57-1c-.37.49-.74,1-1.1,1.41s-.77.93-1.22,1.44-.9,1-1.35,1.41c-.2.19-.35.31-.43.38a.53.53,0,0,1-.34.1.43.43,0,0,1-.26-.09.83.83,0,0,1-.21-.24.6.6,0,0,1-.08-.28,1.07,1.07,0,0,1,.07-.41l.24-.53c.5-1,.87-1.71,1.09-2.08a11.25,11.25,0,0,0,1.23-2.21.17.17,0,0,0-.05-.12.24.24,0,0,0-.14,0,.71.71,0,0,0-.37.14,4.07,4.07,0,0,0-.54.4l-.8.63a10.23,10.23,0,0,1-1,.71c-.13.09-.29.19-.46.32a1.41,1.41,0,0,1-.29.18c-.06,0-.08,0-.08-.08A2.85,2.85,0,0,1,96.75,4.77Z"/><path class="cls-2" d="M106.65,6.86v.37a2.91,2.91,0,0,1-.59.44,1.17,1.17,0,0,1-.63.09c-.48.57-.9.85-1.27.85a.89.89,0,0,1-.56-.2,1.41,1.41,0,0,1-.41-.56,2,2,0,0,1-.15-.79,1.75,1.75,0,0,1,.23-.79,3.77,3.77,0,0,1,.61-.8,3.42,3.42,0,0,1,.8-.6,1.71,1.71,0,0,1,.79-.23.93.93,0,0,1,.41.08.24.24,0,0,1,.15.22.4.4,0,0,1-.13.26.52.52,0,0,1,.29.14.69.69,0,0,1,.08.38,2.58,2.58,0,0,1-.13.67,3,3,0,0,1-.34.75l.1.1H106a.41.41,0,0,0,.19,0l.16-.1Zm-1.14-1.45c-.31.18-.57.35-.79.5a4.43,4.43,0,0,0-.55.45,1.21,1.21,0,0,0-.3.46c-.09.41-.14.64-.14.67,0,.24.17.37.51.37a1.75,1.75,0,0,0,.79-.41,1.56,1.56,0,0,1-.09-.5,2,2,0,0,1,.14-.71A6.07,6.07,0,0,1,105.51,5.41Z"/><path class="cls-2" d="M106.58,7.3V6.94a5.78,5.78,0,0,0,.45-.6.59.59,0,0,1-.25-.15.36.36,0,0,1-.08-.27,1.09,1.09,0,0,1,.16-.5,3.15,3.15,0,0,1,.41-.57,1.21,1.21,0,0,1,.44-.34.34.34,0,0,1,.15,0c.08,0,.11,0,.11.1a.89.89,0,0,1-.17.38c.76-.11,1.24-.17,1.44-.17a.32.32,0,0,1,.16,0,.38.38,0,0,1,.15.23,1.15,1.15,0,0,1,.06.37.42.42,0,0,1-.1.25,4.22,4.22,0,0,1-.35.39,3.33,3.33,0,0,0-.49.69,1.35,1.35,0,0,0-.2.56c0,.17.11.26.32.26A2.47,2.47,0,0,0,110,6.86v.37c-.3.32-.56.57-.75.76a4.61,4.61,0,0,1-.56.44.85.85,0,0,1-.45.16.49.49,0,0,1-.39-.21,1.07,1.07,0,0,1-.15-.62,1.47,1.47,0,0,1,.12-.54,3.68,3.68,0,0,1,.36-.66,8,8,0,0,1,.52-.71l-.34.07-.41.07-.33.06A3.92,3.92,0,0,1,106.58,7.3Z"/><path class="cls-2" d="M112.58,6.81v.41c-.77,1-1.39,1.53-1.88,1.53a.67.67,0,0,1-.61-.43,2.39,2.39,0,0,1-.23-1.12,4.18,4.18,0,0,1,.27-1.34,9.89,9.89,0,0,1,.71-1.58,9.57,9.57,0,0,1,.92-1.39,3.47,3.47,0,0,1,.89-.83.54.54,0,0,1,.26-.1.14.14,0,0,1,.15.1,1,1,0,0,1,0,.35,4.18,4.18,0,0,1-.62,1.89,11.33,11.33,0,0,1-1.74,2.28,2.42,2.42,0,0,0-.06.45,1,1,0,0,0,.15.57.49.49,0,0,0,.43.22.46.46,0,0,0,.29-.11,3.44,3.44,0,0,0,.34-.26Zm-1.65-1a6,6,0,0,0,.56-.64c.17-.24.34-.5.5-.77a6.35,6.35,0,0,0,.37-.74,1.43,1.43,0,0,0,.14-.49c0-.08,0-.13-.09-.13l-.13.06a3.89,3.89,0,0,0-.75,1.08A6.57,6.57,0,0,0,110.93,5.82Z"/><path class="cls-2" d="M115.17,6.87v.41a5.58,5.58,0,0,1-1,1,1.43,1.43,0,0,1-.79.35.71.71,0,0,1-.67-.48,2.36,2.36,0,0,1-.22-1,1.84,1.84,0,0,1,0-.41,1.48,1.48,0,0,1,.11-.32,3.74,3.74,0,0,1,.22-.4c.53-.81,1-1.22,1.44-1.22.23,0,.34.09.34.26a1.38,1.38,0,0,1-.22.55,2.92,2.92,0,0,1-.39.54c-.32.31-.53.52-.63.64a.65.65,0,0,0-.14.42.43.43,0,0,0,.15.33.52.52,0,0,0,.38.13,1,1,0,0,0,.57-.19A6,6,0,0,0,115.17,6.87ZM114.8,4.4a.39.39,0,0,1-.26-.1.32.32,0,0,1-.13-.27,1,1,0,0,1,.23-.54.65.65,0,0,1,.48-.3.43.43,0,0,1,.28.1.41.41,0,0,1,.11.3.87.87,0,0,1-.23.52A.6.6,0,0,1,114.8,4.4Z"/><path class="cls-2" d="M118.78,6.88v.36a1.82,1.82,0,0,1-.9.37,1.32,1.32,0,0,1-.39-.06,6.16,6.16,0,0,1-.86.92,1.12,1.12,0,0,1-.71.29.68.68,0,0,1-.64-.44,2.34,2.34,0,0,1-.22-1.08,4.16,4.16,0,0,1,.53-1.91,10.34,10.34,0,0,1,1.28-1.94,12.33,12.33,0,0,1,1.45-1.5c.47-.39.78-.59,1-.59s.24.11.24.33c0,1-1.24,2.65-3.72,5.05a3.57,3.57,0,0,0,0,.39c0,.51.14.76.41.76a.49.49,0,0,0,.32-.13,4.21,4.21,0,0,0,.5-.49,1.23,1.23,0,0,1-.13-.44,1.11,1.11,0,0,1,.25-.66,2.77,2.77,0,0,1,.57-.61,1,1,0,0,1,.46-.26c.15,0,.22.11.22.33a1.66,1.66,0,0,1-.13.59,5.44,5.44,0,0,1-.37.8l.14.11a.29.29,0,0,0,.17,0A1.11,1.11,0,0,0,118.78,6.88ZM116,6.05a4.54,4.54,0,0,0,.58-.58c.2-.23.48-.58.85-1s.64-.82.84-1.12a6.14,6.14,0,0,0,.46-.75,1,1,0,0,0,.16-.41c0-.05,0-.08,0-.08s-.24.13-.5.4a9.32,9.32,0,0,0-.88,1.1c-.45.64-.78,1.12-1,1.44A5,5,0,0,0,116,6.05Z"/><path class="cls-2" d="M44.89,15l.47-.05V15a.69.69,0,0,0,.1.37.6.6,0,0,0,.31.27,1.29,1.29,0,0,0,.51.09,1,1,0,0,0,.65-.19.52.52,0,0,0,.22-.42.47.47,0,0,0-.11-.31,2.16,2.16,0,0,0-.66-.36,5,5,0,0,1-.57-.28,1,1,0,0,1-.35-.34.76.76,0,0,1-.12-.42.89.89,0,0,1,.15-.5,1,1,0,0,1,.44-.33,1.67,1.67,0,0,1,.65-.12,1.61,1.61,0,0,1,.73.15.9.9,0,0,1,.43.38,1,1,0,0,1,.13.47v.07l-.45,0a.71.71,0,0,0,0-.23.58.58,0,0,0-.15-.25A.69.69,0,0,0,47,13a1.25,1.25,0,0,0-.4-.06.93.93,0,0,0-.6.17.43.43,0,0,0-.16.35.4.4,0,0,0,.07.24.74.74,0,0,0,.24.2c.08,0,.28.14.6.27a5.33,5.33,0,0,1,.52.27,1,1,0,0,1,.3.31.8.8,0,0,1,.1.41.9.9,0,0,1-.17.53A1.1,1.1,0,0,1,47,16a2,2,0,0,1-1.69-.13A1.07,1.07,0,0,1,44.89,15Z"/><path class="cls-2" d="M48,16.1l.54-2.56H49l-.53,2.56Zm.64-3,.1-.5h.44l-.11.5Z"/><path class="cls-2" d="M51,15.23l.42,0a1.25,1.25,0,0,1-.42.61,1.15,1.15,0,0,1-.78.28,1.07,1.07,0,0,1-.53-.13.88.88,0,0,1-.36-.38,1.34,1.34,0,0,1-.12-.58,1.78,1.78,0,0,1,.19-.81,1.47,1.47,0,0,1,.5-.59,1.24,1.24,0,0,1,.67-.19,1,1,0,0,1,.74.29,1.06,1.06,0,0,1,.27.77,2.56,2.56,0,0,1,0,.39H49.65a.62.62,0,0,0,0,.13.8.8,0,0,0,.16.55.52.52,0,0,0,.41.19.84.84,0,0,0,.44-.14A1,1,0,0,0,51,15.23Zm-1.27-.63h1.44v-.1A.69.69,0,0,0,51,14a.53.53,0,0,0-.42-.18.85.85,0,0,0-.51.19A1.17,1.17,0,0,0,49.72,14.6Z"/><path class="cls-2" d="M51.85,16.1l.54-2.56h.43l-.08.42a1.74,1.74,0,0,1,.43-.38,1,1,0,0,1,.42-.1.6.6,0,0,1,.4.13.65.65,0,0,1,.21.35,1.49,1.49,0,0,1,.41-.36.93.93,0,0,1,.46-.12.69.69,0,0,1,.48.15.6.6,0,0,1,.16.43,2.05,2.05,0,0,1-.06.39l-.34,1.65h-.44l.35-1.69a1.8,1.8,0,0,0,.05-.3.28.28,0,0,0-.08-.2.32.32,0,0,0-.23-.07.74.74,0,0,0-.39.12.87.87,0,0,0-.32.31,2.33,2.33,0,0,0-.2.59l-.26,1.24h-.43l.36-1.73a2.35,2.35,0,0,0,0-.25.28.28,0,0,0-.08-.2.29.29,0,0,0-.21-.08.79.79,0,0,0-.39.12,1,1,0,0,0-.33.33,2.28,2.28,0,0,0-.21.6l-.25,1.21Z"/><path class="cls-2" d="M55.76,17.08l.74-3.54h.4l-.07.36a1.53,1.53,0,0,1,.4-.33.81.81,0,0,1,.37-.09.78.78,0,0,1,.61.27,1.1,1.1,0,0,1,.24.76,1.9,1.9,0,0,1-.13.73,1.77,1.77,0,0,1-.32.53,1.35,1.35,0,0,1-.4.3.93.93,0,0,1-.4.09.79.79,0,0,1-.72-.47l-.29,1.39Zm.86-2a1.55,1.55,0,0,0,0,.4.52.52,0,0,0,.52.35.7.7,0,0,0,.61-.42,1.83,1.83,0,0,0,.23-.87.72.72,0,0,0-.16-.5.48.48,0,0,0-.38-.18.56.56,0,0,0-.31.09,1,1,0,0,0-.27.26,1.56,1.56,0,0,0-.2.43A1.65,1.65,0,0,0,56.62,15.05Z"/><path class="cls-2" d="M58.72,16.1l.54-2.56h.38l-.1.52a1.94,1.94,0,0,1,.38-.44.69.69,0,0,1,.39-.14.78.78,0,0,1,.32.09l-.18.41a.44.44,0,0,0-.25-.08.67.67,0,0,0-.47.25,2.05,2.05,0,0,0-.38.92l-.21,1Z"/><path class="cls-2" d="M62.25,15.23l.43,0a1.32,1.32,0,0,1-.42.61,1.18,1.18,0,0,1-.79.28A1,1,0,0,1,61,16a1,1,0,0,1-.37-.38,1.34,1.34,0,0,1-.12-.58,1.92,1.92,0,0,1,.19-.81,1.42,1.42,0,0,1,.51-.59,1.21,1.21,0,0,1,.67-.19,1,1,0,0,1,.73.29,1.06,1.06,0,0,1,.27.77,2.56,2.56,0,0,1,0,.39H60.91c0,.05,0,.09,0,.13a.8.8,0,0,0,.17.55.5.5,0,0,0,.4.19.82.82,0,0,0,.44-.14A.92.92,0,0,0,62.25,15.23ZM61,14.6h1.44v-.1a.68.68,0,0,0-.16-.5.54.54,0,0,0-.42-.18.8.8,0,0,0-.51.19A1.18,1.18,0,0,0,61,14.6Z"/><path class="cls-2" d="M64.46,16.1l.74-3.54h.43L64.9,16.1Z"/><path class="cls-2" d="M67.32,15.78a1.75,1.75,0,0,1-.44.29,1.13,1.13,0,0,1-.45.09.8.8,0,0,1-.57-.21.73.73,0,0,1-.22-.53.77.77,0,0,1,.1-.38.84.84,0,0,1,.26-.27,1.11,1.11,0,0,1,.4-.14,3.68,3.68,0,0,1,.56-.05,1.86,1.86,0,0,0,.59-.09,1.18,1.18,0,0,0,0-.29.3.3,0,0,0-.11-.24.73.73,0,0,0-.45-.12.79.79,0,0,0-.45.12.65.65,0,0,0-.25.35l-.45,0a1.2,1.2,0,0,1,.43-.59,1.34,1.34,0,0,1,.74-.2,1.19,1.19,0,0,1,.76.23.54.54,0,0,1,.21.44,2.23,2.23,0,0,1-.06.47l-.14.64a2.11,2.11,0,0,0-.07.49,1.93,1.93,0,0,0,0,.35h-.44A2,2,0,0,1,67.32,15.78Zm.16-1a.66.66,0,0,1-.2.06l-.35,0a2.27,2.27,0,0,0-.54.09.44.44,0,0,0-.23.16.43.43,0,0,0,0,.55.53.53,0,0,0,.37.12.87.87,0,0,0,.41-.11.89.89,0,0,0,.32-.32A1.72,1.72,0,0,0,67.48,14.8Z"/><path class="cls-2" d="M69.77,16.1l.74-3.54h.58l.35,2.3c0,.3.08.59.1.86a8,8,0,0,1,.49-1l1.24-2.2h.59l-.74,3.54h-.46L73,14.38A12.47,12.47,0,0,1,73.39,13c-.1.23-.22.48-.37.75L71.7,16.1h-.46l-.35-2.27a4.75,4.75,0,0,1-.07-.72c0,.31-.08.55-.12.74l-.47,2.25Z"/><path class="cls-2" d="M75.71,15.23l.43,0a1.25,1.25,0,0,1-.42.61,1.16,1.16,0,0,1-.79.28,1,1,0,0,1-.52-.13.88.88,0,0,1-.36-.38,1.34,1.34,0,0,1-.13-.58,1.8,1.8,0,0,1,.2-.81,1.47,1.47,0,0,1,.5-.59,1.24,1.24,0,0,1,.67-.19,1,1,0,0,1,.73.29,1,1,0,0,1,.28.77,1.72,1.72,0,0,1,0,.39H74.38a.62.62,0,0,0,0,.13.8.8,0,0,0,.16.55.52.52,0,0,0,.41.19.87.87,0,0,0,.44-.14A1,1,0,0,0,75.71,15.23Zm-1.26-.63h1.43a.46.46,0,0,0,0-.1.69.69,0,0,0-.17-.5.54.54,0,0,0-.42-.18.8.8,0,0,0-.51.19A1.17,1.17,0,0,0,74.45,14.6Z"/><path class="cls-2" d="M75.82,17.07l.08-.38a.87.87,0,0,0,.26,0,.28.28,0,0,0,.22-.09,1.24,1.24,0,0,0,.18-.51l.54-2.59h.43L77,16.21a1.89,1.89,0,0,1-.24.68.6.6,0,0,1-.51.24A1.76,1.76,0,0,1,75.82,17.07Zm1.38-4,.11-.5h.43l-.11.5Z"/><path class="cls-2" d="M77.76,15.13a1.74,1.74,0,0,1,.44-1.24,1.22,1.22,0,0,1,1-.41,1,1,0,0,1,.75.29,1.06,1.06,0,0,1,.29.78,1.86,1.86,0,0,1-.18.82,1.32,1.32,0,0,1-1.21.79,1.11,1.11,0,0,1-.54-.13.81.81,0,0,1-.37-.36A1.08,1.08,0,0,1,77.76,15.13Zm.43,0a.78.78,0,0,0,.18.55.57.57,0,0,0,.44.18.92.92,0,0,0,.28-.05.83.83,0,0,0,.25-.18.86.86,0,0,0,.2-.26,1.83,1.83,0,0,0,.14-.32,1.51,1.51,0,0,0,.07-.46.76.76,0,0,0-.17-.54.56.56,0,0,0-.44-.19.72.72,0,0,0-.38.1,1,1,0,0,0-.3.28,1.27,1.27,0,0,0-.2.44A2.07,2.07,0,0,0,78.19,15.09Z"/><path class="cls-2" d="M80.43,16.1,81,13.54h.38l-.11.52a1.73,1.73,0,0,1,.39-.44.69.69,0,0,1,.39-.14.82.82,0,0,1,.32.09l-.18.41a.46.46,0,0,0-.25-.08.67.67,0,0,0-.47.25,2,2,0,0,0-.38.92l-.22,1Z"/><path class="cls-2" d="M83.63,15l.47-.05V15a.69.69,0,0,0,.1.37.6.6,0,0,0,.31.27,1.29,1.29,0,0,0,.51.09,1,1,0,0,0,.65-.19.53.53,0,0,0,.23-.42.48.48,0,0,0-.12-.31,2.16,2.16,0,0,0-.66-.36,5,5,0,0,1-.57-.28,1,1,0,0,1-.35-.34.76.76,0,0,1-.12-.42.89.89,0,0,1,.15-.5,1,1,0,0,1,.44-.33,1.67,1.67,0,0,1,.65-.12,1.61,1.61,0,0,1,.73.15.9.9,0,0,1,.43.38,1,1,0,0,1,.13.47v.07l-.45,0a.71.71,0,0,0,0-.23.58.58,0,0,0-.15-.25.69.69,0,0,0-.28-.16,1.25,1.25,0,0,0-.4-.06.93.93,0,0,0-.6.17.43.43,0,0,0-.16.35.4.4,0,0,0,.07.24.74.74,0,0,0,.24.2c.08,0,.28.14.6.27a5.33,5.33,0,0,1,.52.27,1,1,0,0,1,.3.31.8.8,0,0,1,.1.41.84.84,0,0,1-.17.53,1.1,1.1,0,0,1-.49.38,1.71,1.71,0,0,1-.7.13,1.64,1.64,0,0,1-1-.26A1,1,0,0,1,83.63,15Z"/><path class="cls-2" d="M86.82,15.13a1.75,1.75,0,0,1,.45-1.24,1.22,1.22,0,0,1,1-.41,1,1,0,0,1,.75.29,1.05,1.05,0,0,1,.28.78,1.86,1.86,0,0,1-.18.82,1.26,1.26,0,0,1-.5.59,1.35,1.35,0,0,1-.7.2,1.08,1.08,0,0,1-.54-.13.83.83,0,0,1-.38-.36A1.2,1.2,0,0,1,86.82,15.13Zm.44,0a.78.78,0,0,0,.18.55.57.57,0,0,0,.44.18.86.86,0,0,0,.27-.05.76.76,0,0,0,.26-.18.86.86,0,0,0,.2-.26,1.83,1.83,0,0,0,.14-.32,1.51,1.51,0,0,0,.07-.46.81.81,0,0,0-.17-.54.58.58,0,0,0-.44-.19.7.7,0,0,0-.38.1,1,1,0,0,0-.3.28,1.11,1.11,0,0,0-.2.44A1.6,1.6,0,0,0,87.26,15.09Z"/><path class="cls-2" d="M89.46,16.1l.74-3.54h.44L89.9,16.1Z"/><path class="cls-2" d="M92.35,15.64a1.3,1.3,0,0,1-.95.52.69.69,0,0,1-.48-.17.54.54,0,0,1-.18-.42,3.7,3.7,0,0,1,.08-.55l.31-1.48h.44l-.34,1.64a1.57,1.57,0,0,0,0,.32.28.28,0,0,0,.09.22.35.35,0,0,0,.26.08.8.8,0,0,0,.36-.09,1,1,0,0,0,.3-.24,1.55,1.55,0,0,0,.21-.36c0-.09.07-.24.12-.46l.23-1.11h.44l-.54,2.56h-.4Z"/><path class="cls-2" d="M95.11,15.17l.44,0a1.46,1.46,0,0,1-.47.72,1.12,1.12,0,0,1-.69.23.89.89,0,0,1-.67-.27,1,1,0,0,1-.26-.76,2.14,2.14,0,0,1,.16-.82,1.38,1.38,0,0,1,.48-.62,1.24,1.24,0,0,1,.71-.21.9.9,0,0,1,.65.23.8.8,0,0,1,.25.62l-.43,0a.53.53,0,0,0-.15-.38.49.49,0,0,0-.36-.14.69.69,0,0,0-.46.17,1.06,1.06,0,0,0-.3.5,2.28,2.28,0,0,0-.11.66.77.77,0,0,0,.14.49.46.46,0,0,0,.36.16.63.63,0,0,0,.41-.16A1,1,0,0,0,95.11,15.17Z"/><path class="cls-2" d="M95.8,16.1l.54-2.56h.43l-.53,2.56Zm.64-3,.1-.5H97l-.11.5Z"/><path class="cls-2" d="M97,15.13a1.79,1.79,0,0,1,.44-1.24,1.25,1.25,0,0,1,1-.41,1,1,0,0,1,.75.29,1.05,1.05,0,0,1,.28.78,1.86,1.86,0,0,1-.18.82,1.32,1.32,0,0,1-1.2.79A1.08,1.08,0,0,1,97.5,16a.83.83,0,0,1-.38-.36A1.2,1.2,0,0,1,97,15.13Zm.44,0a.82.82,0,0,0,.17.55.6.6,0,0,0,.44.18.71.71,0,0,0,.54-.23,1.06,1.06,0,0,0,.2-.26,1.27,1.27,0,0,0,.13-.32,1.54,1.54,0,0,0,.08-.46.77.77,0,0,0-.18-.54.55.55,0,0,0-.44-.19.69.69,0,0,0-.37.1,1,1,0,0,0-.31.28,1.48,1.48,0,0,0-.2.44A2,2,0,0,0,97.43,15.09ZM98,13.23l.46-.67h.55l-.64.67Z"/><path class="cls-2" d="M99.66,16.1l.54-2.56h.4l-.1.45a2,2,0,0,1,.49-.39.92.92,0,0,1,.45-.12.69.69,0,0,1,.49.17.58.58,0,0,1,.18.45,2.53,2.53,0,0,1-.06.45l-.33,1.55h-.44l.34-1.62a1.67,1.67,0,0,0,.06-.35.26.26,0,0,0-.09-.21.4.4,0,0,0-.26-.08.84.84,0,0,0-.59.24,1.5,1.5,0,0,0-.39.83l-.25,1.19Z"/></svg>